# xmcd CD database file
#
# Track frame offsets:
#	150
#	22820
#	54735
#	68670
#	82490
#	101305
#	123130
#	135655
#	155575
#	168947
#	182335
#	193155
#	208192
#	220470
#	236370
#	248522
#	266127
#	280070
#	299295
#	317522
#
# Disc length: 4403 seconds
#
# Revision: 0
# Processed by: cddbd v1.5.1PL0 Copyright (c) Steve Scherf et al.
# Submitted via: CDex 1.51
#
DISCID=1f113114
DTITLE=Bud Powell - Birdland All Season 1953 Sessions (Disc-2)
DYEAR=1977
DGENRE=Jazz
TTITLE0=MOOSE THE MOOCHE
TTITLE1=CHERYL
TTITLE2=BUDO
TTITLE3=MY HEART STOOD STILL
TTITLE4=DANCE OF THE INFIDELS
TTITLE5=DANCE OF THE INFIDELS
TTITLE6=MY HEART STOOD STILL
TTITLE7=UN POCO LOCO
TTITLE8=PARISIAN THOROUGHFARE
TTITLE9=DANCE OF THE INFIDELS
TTITLE10=GLASS ENCLOSURE
TTITLE11=PARISIAN THOROUGHFARE
TTITLE12=DANCE OF THE INFIDELS
TTITLE13=UN POCO LOCO
TTITLE14=OBLIVION
TTITLE15=PARISIAN THOROUGHFARE
TTITLE16=DANCE OF THE INFIDELS
TTITLE17=EMBRACEABLE TOU
TTITLE18=UN POCO LOCO
TTITLE19=OBLIVION
EXTD=YEAR: 1977
EXTT0=
EXTT1=
EXTT2=
EXTT3=
EXTT4=
EXTT5=
EXTT6=
EXTT7=
EXTT8=
EXTT9=
EXTT10=
EXTT11=
EXTT12=
EXTT13=
EXTT14=
EXTT15=
EXTT16=
EXTT17=
EXTT18=
EXTT19=
PLAYORDER=
